<?xml version="1.0" standalone="no"?>
<!DOCTYPE svg PUBLIC "-//W3C//DTD SVG 20010904//EN"
 "http://www.w3.org/TR/2001/REC-SVG-20010904/DTD/svg10.dtd">
<svg version="1.0" xmlns="http://www.w3.org/2000/svg"
 width="55.000000pt" height="55.000000pt" viewBox="0 0 55.000000 55.000000"
 preserveAspectRatio="xMidYMid meet">
<metadata>
Created by potrace 1.11, written by Peter Selinger 2001-2013
</metadata>
<g transform="translate(0.000000,55.000000) scale(0.100000,-0.100000)"
fill="#000000" stroke="none">
<path d="M258 368 l-3 -83 -45 0 -45 0 -3 68 c-3 59 -5 67 -22 67 -18 0 -20
-7 -20 -69 0 -100 1 -101 77 -101 l64 0 -3 -47 -3 -48 -75 0 c-63 0 -75 -3
-78 -17 -3 -17 10 -18 173 -18 160 0 176 2 173 17 -2 14 -16 17 -78 17 l-75 1
0 45 0 45 60 5 60 5 3 83 c2 67 0 82 -12 82 -12 0 -16 -16 -18 -67 l-3 -68
-45 0 -45 0 -3 83 c-2 63 -6 82 -17 82 -11 0 -15 -19 -17 -82z"/>
</g>
</svg>
